<svg width="23" height="23" viewBox="0 0 23 23" fill="none" xmlns="http://www.w3.org/2000/svg">
<path d="M15.9275 6.20433H15.7293C15.7041 3.83629 13.8229 1.91675 11.5109 1.91675C10.3465 1.93304 9.31755 2.35758 8.51666 3.17312C7.72605 3.97621 7.28682 5.04571 7.27 6.20433H7.07188C4.49352 6.20433 2.39551 8.35579 2.39551 11.0008V16.287C2.39551 18.932 4.49352 21.0834 7.07188 21.0834C7.45878 21.0834 7.77278 20.7614 7.77278 20.3647C7.77278 19.9679 7.45878 19.6459 7.07188 19.6459C5.26638 19.6459 3.7973 18.1394 3.7973 16.287V11.0008C3.7973 9.14833 5.26638 7.64183 7.07188 7.64183H7.26533V9.15696C7.26533 9.55371 7.57933 9.87571 7.96623 9.87571C8.35312 9.87571 8.66712 9.55371 8.66712 9.15696V6.23787C8.66992 5.4645 8.9671 4.73808 9.50259 4.19279C10.0399 3.64941 10.7567 3.39737 11.5081 3.35425C13.0491 3.35425 14.3023 4.62883 14.3276 6.20433H11.2614C10.8745 6.20433 10.5605 6.52633 10.5605 6.92308C10.5605 7.31983 10.8745 7.64183 11.2614 7.64183H14.3322V9.15696C14.3322 9.55371 14.6462 9.87571 15.0331 9.87571C15.42 9.87571 15.734 9.55371 15.734 9.15696V7.64183H15.9275C17.733 7.64183 19.202 9.14833 19.202 11.0008V16.287C19.202 18.1394 17.733 19.6459 15.9275 19.6459H10.8894C10.5025 19.6459 10.1885 19.9679 10.1885 20.3647C10.1885 20.7614 10.5025 21.0834 10.8894 21.0834H15.9275C18.5058 21.0834 20.6038 18.932 20.6038 16.287V11.0008C20.6038 8.35579 18.5058 6.20433 15.9275 6.20433Z" fill="white"/>
</svg>
