<svg width="24" height="23" viewBox="0 0 24 23" fill="none" xmlns="http://www.w3.org/2000/svg">
<path d="M16.6342 1.91699C19.8935 1.91699 21.7335 3.76562 21.7431 7.02491V15.9757C21.7431 19.2341 19.8935 21.0837 16.6342 21.0837H7.68433C4.42504 21.0837 2.57642 19.2341 2.57642 15.9757V7.02491C2.57642 3.76562 4.42504 1.91699 7.68433 1.91699H16.6342ZM12.6389 5.87491C12.3696 5.71199 12.0438 5.71199 11.786 5.87491C11.5263 6.03687 11.3835 6.33491 11.4113 6.63199V16.3974C11.4602 16.8095 11.8042 17.1162 12.2067 17.1162C12.6198 17.1162 12.9638 16.8095 13.0021 16.3974V6.63199C13.0405 6.33491 12.8977 6.03687 12.6389 5.87491ZM8.1635 9.01824C7.90475 8.85533 7.57796 8.85533 7.32017 9.01824C7.06046 9.18116 6.91767 9.47728 6.94642 9.77533V16.3974C6.98379 16.8095 7.32879 17.1162 7.74087 17.1162C8.15392 17.1162 8.49796 16.8095 8.53629 16.3974V9.77533C8.566 9.47728 8.42129 9.18116 8.1635 9.01824ZM17.0367 12.497C16.7789 12.3341 16.4531 12.3341 16.1848 12.497C15.925 12.6599 15.7823 12.9465 15.8206 13.2541V16.3974C15.8589 16.8095 16.203 17.1162 16.616 17.1162C17.0185 17.1162 17.3625 16.8095 17.4114 16.3974V13.2541C17.4392 12.9465 17.2964 12.6599 17.0367 12.497Z" fill="#FF4E00"/>
</svg>
