<svg width="24" height="24" viewBox="0 0 24 24" fill="none" xmlns="http://www.w3.org/2000/svg">
<path d="M5.49955 15C6.3742 14.9974 7.21577 14.6654 7.85655 14.07L14.1165 17.647C13.9068 18.4666 13.9993 19.3344 14.377 20.0914C14.7547 20.8484 15.3925 21.444 16.1735 21.7692C16.9545 22.0944 17.8265 22.1275 18.6299 21.8623C19.4333 21.5972 20.1143 21.0515 20.5483 20.3253C20.9823 19.5991 21.1401 18.7408 20.993 17.9077C20.8459 17.0746 20.4037 16.3223 19.7473 15.7885C19.0909 15.2548 18.2642 14.9754 17.4186 15.0014C16.5729 15.0273 15.765 15.357 15.1425 15.93L8.88255 12.353C8.94855 12.103 8.98455 11.844 8.99055 11.585L15.1405 8.07003C15.7327 8.6088 16.4922 8.92753 17.2915 8.97274C18.0908 9.01795 18.8814 8.7869 19.5305 8.31834C20.1797 7.84978 20.6479 7.17223 20.8568 6.39935C21.0656 5.62647 21.0022 4.80528 20.6774 4.07356C20.3525 3.34184 19.7859 2.7441 19.0726 2.38062C18.3592 2.01714 17.5426 1.91004 16.7597 2.07729C15.9768 2.24453 15.2752 2.67594 14.7726 3.29915C14.27 3.92235 13.9971 4.69944 13.9995 5.50003C14.0035 5.78803 14.0425 6.07503 14.1165 6.35303L8.43255 9.60003C8.10293 9.09009 7.64631 8.67467 7.10757 8.3946C6.56882 8.11453 5.96648 7.97943 5.35972 8.00258C4.75297 8.02573 4.16267 8.20633 3.64683 8.52664C3.131 8.84695 2.70736 9.29595 2.41755 9.82952C2.12774 10.3631 1.98173 10.9629 1.99386 11.57C2.00599 12.177 2.17585 12.7705 2.48674 13.2921C2.79763 13.8136 3.23887 14.2454 3.76709 14.5448C4.29531 14.8443 4.89235 15.0011 5.49955 15Z" fill="black"/>
</svg>
