<svg width="31" height="30" viewBox="0 0 31 30" fill="none" xmlns="http://www.w3.org/2000/svg">
<path d="M24.0621 10.6915C24.3071 10.6915 24.5295 10.7985 24.7053 10.9792C24.869 11.1722 24.9515 11.4119 24.9276 11.6651C24.9276 11.7487 24.2725 20.0338 23.8983 23.5212C23.664 25.6614 22.2843 26.9607 20.2149 26.9963C18.6236 27.032 17.0683 27.0443 15.5368 27.0443C13.9109 27.0443 12.3208 27.032 10.7774 26.9963C8.7773 26.9484 7.39647 25.6257 7.1741 23.5212C6.78914 20.0216 6.14595 11.7487 6.13399 11.6651C6.12204 11.4119 6.20334 11.1722 6.36832 10.9792C6.53091 10.7985 6.76523 10.6915 7.01151 10.6915H24.0621ZM18.0702 2.45898C19.157 2.45898 20.1277 3.21743 20.4087 4.29917L20.6095 5.19653C20.7721 5.92793 21.4057 6.44545 22.135 6.44545H25.7192C26.1974 6.44545 26.5955 6.8425 26.5955 7.34772V7.81483C26.5955 8.30776 26.1974 8.71711 25.7192 8.71711H5.34626C4.86686 8.71711 4.46875 8.30776 4.46875 7.81483V7.34772C4.46875 6.8425 4.86686 6.44545 5.34626 6.44545H8.93044C9.65852 6.44545 10.2921 5.92793 10.4559 5.19776L10.6436 4.35941C10.9353 3.21743 11.8953 2.45898 12.994 2.45898H18.0702Z" />
</svg>
