<svg width="23" height="23" viewBox="0 0 23 23" fill="none" xmlns="http://www.w3.org/2000/svg">
<path d="M15.5164 1.91699C18.4767 1.91699 20.125 3.62283 20.125 6.54574V16.4453C20.125 19.4162 18.4767 21.0837 15.5164 21.0837H7.48458C4.57125 21.0837 2.875 19.4162 2.875 16.4453V6.54574C2.875 3.62283 4.57125 1.91699 7.48458 1.91699H15.5164ZM7.74333 15.0845C7.45583 15.0557 7.17792 15.1899 7.02458 15.4391C6.87125 15.6787 6.87125 15.9949 7.02458 16.2441C7.17792 16.4837 7.45583 16.6274 7.74333 16.5891H15.2567C15.639 16.5507 15.9275 16.224 15.9275 15.8416C15.9275 15.4487 15.639 15.1228 15.2567 15.0845H7.74333ZM15.2567 10.7135H7.74333C7.33029 10.7135 6.99583 11.0499 6.99583 11.462C6.99583 11.8741 7.33029 12.2095 7.74333 12.2095H15.2567C15.6687 12.2095 16.0042 11.8741 16.0042 11.462C16.0042 11.0499 15.6687 10.7135 15.2567 10.7135ZM10.6078 6.37324H7.74333V6.38283C7.33029 6.38283 6.99583 6.71824 6.99583 7.13033C6.99583 7.54241 7.33029 7.87783 7.74333 7.87783H10.6078C11.0208 7.87783 11.3562 7.54241 11.3562 7.11978C11.3562 6.70866 11.0208 6.37324 10.6078 6.37324Z" fill="#FF4E00"/>
</svg>
