<svg width="30" height="30" viewBox="0 0 30 30" fill="none" xmlns="http://www.w3.org/2000/svg">
<path fill-rule="evenodd" clip-rule="evenodd" d="M10.9667 14.4978C10.9892 14.5178 11.0105 14.5365 11.0317 14.559C12.3805 15.9415 13.1242 17.7728 13.1242 19.7165V24.6965L15.9192 23.174C16.1392 23.054 16.2755 22.819 16.2755 22.5603V19.7015C16.2755 17.7653 17.0117 15.9403 18.348 14.5653L24.3942 8.13402C24.7855 7.71777 25.0005 7.17152 25.0005 6.59527V5.42527C25.0005 4.84527 24.543 4.37402 23.983 4.37402H5.39424C4.83299 4.37402 4.37549 4.84527 4.37549 5.42527V6.59527C4.37549 7.17152 4.59049 7.71777 4.98174 8.13277L10.9667 14.4978ZM12.683 26.8753C12.4305 26.8753 12.1805 26.8078 11.953 26.6728C11.513 26.4103 11.2492 25.9465 11.2492 25.4315V19.7165C11.2492 18.2978 10.7205 16.9615 9.75674 15.9378C9.72799 15.914 9.69924 15.8878 9.67424 15.8603L3.61674 9.41902C2.89674 8.65402 2.50049 7.65027 2.50049 6.59527V5.42527C2.50049 3.81152 3.79924 2.49902 5.39424 2.49902H23.983C25.5767 2.49902 26.8755 3.81152 26.8755 5.42527V6.59527C26.8755 7.64902 26.4792 8.65152 25.7617 9.41777L19.703 15.8603C18.6992 16.8953 18.1505 18.2565 18.1505 19.7015V22.5603C18.1505 23.5053 17.6392 24.3703 16.8167 24.8203L13.3655 26.7003C13.1505 26.8165 12.9167 26.8753 12.683 26.8753Z" fill="white"/>
</svg>
