<svg width="26" height="26" viewBox="0 0 26 26" fill="none" xmlns="http://www.w3.org/2000/svg">
<path d="M16.8912 2.39954C20.2535 2.39954 22.5126 4.75932 22.5126 8.27209V10.6339C22.5126 11.0175 22.2007 11.3294 21.8171 11.3294C21.4334 11.3294 21.1215 11.0175 21.1215 10.6339V8.27209C21.1215 5.54857 19.4613 3.79069 16.8912 3.79069H8.20346C5.63341 3.79069 3.97219 5.54857 3.97219 8.27209V16.4576C3.97219 19.1811 5.63341 20.939 8.20346 20.939H16.8902C19.4603 20.939 21.1215 19.1811 21.1215 16.4576V15.3764C20.97 15.2508 20.8155 15.1163 20.6591 14.9807C19.5629 14.033 18.4318 13.0544 17.1952 13.3404C16.3312 13.5407 15.8488 14.2533 15.2908 15.0774C14.8095 15.7889 14.3112 16.5244 13.507 17.0226C12.3062 17.766 11.0386 17.212 10.1118 16.8074L9.95835 16.7406C8.80437 16.2364 8.02907 16.338 7.28466 17.0884C7.0146 17.3604 6.57413 17.3644 6.30208 17.0924C6.03003 16.8223 6.02803 16.3809 6.29809 16.1088C7.45506 14.9429 8.83327 14.7326 10.5134 15.464L10.6699 15.5338C11.5907 15.9364 12.2344 16.1766 12.7755 15.8397C13.3266 15.4999 13.7212 14.916 14.1398 14.2971C14.7706 13.3664 15.4851 12.309 16.8802 11.9852C18.8055 11.5367 20.3372 12.8641 21.5689 13.9284C21.8021 14.1307 22.0293 14.328 22.2505 14.5044C22.416 14.6369 22.5116 14.8362 22.5116 15.0475L22.5126 16.4576C22.5126 19.9704 20.2525 22.3301 16.8902 22.3301H8.20346C4.84117 22.3301 2.58203 19.9704 2.58203 16.4576V8.27209C2.58203 4.75932 4.84117 2.39954 8.20346 2.39954H16.8912ZM9.41185 6.60699C10.818 6.60699 11.961 7.751 11.961 9.15611C11.961 10.5622 10.818 11.7062 9.41185 11.7062C8.00575 11.7062 6.86273 10.5622 6.86273 9.15611C6.86273 7.751 8.00575 6.60699 9.41185 6.60699ZM9.41185 7.99814C8.77308 7.99814 8.25289 8.51733 8.25289 9.15611C8.25289 9.79588 8.77308 10.3151 9.41185 10.3151C10.0516 10.3151 10.5708 9.79588 10.5708 9.15611C10.5708 8.51733 10.0516 7.99814 9.41185 7.99814Z" fill="white"/>
</svg>
