<svg width="30" height="30" viewBox="0 0 30 30" fill="none" xmlns="http://www.w3.org/2000/svg">
<path fill-rule="evenodd" clip-rule="evenodd" d="M30 7.995C30 2.88 27.09 0 21.99 0H7.995C2.88 0 0 2.88 0 7.995V22.005C0 27.09 2.88 30 7.995 30H22.005C27.105 30 30 27.09 30 22.005V7.995ZM19.2798 13.9143C19.6999 14.1602 20.184 14.3081 20.705 14.3081C21.2218 14.3081 21.7002 14.1588 22.1181 13.9171C22.5389 14.1638 23.0266 14.3081 23.5483 14.3081V22.1272C23.5483 22.9126 22.9121 23.5488 22.1267 23.5488H20.705V16.4406H16.44V23.5488H7.9101C7.12463 23.5488 6.48844 22.9126 6.48844 22.1272V14.3081C7.01019 14.3081 7.49782 14.1638 7.91863 13.9171C8.33659 14.1588 8.81498 14.3081 9.33175 14.3081C9.85279 14.3081 10.3369 14.1602 10.757 13.9143C11.1764 14.1581 11.6562 14.3081 12.1751 14.3081C12.6954 14.3081 13.1766 14.1574 13.5967 13.9129C14.0168 14.1574 14.498 14.3081 15.0184 14.3081C15.5387 14.3081 16.0199 14.1574 16.44 13.9129C16.8601 14.1574 17.3414 14.3081 17.8617 14.3081C18.3806 14.3081 18.8604 14.1581 19.2798 13.9143ZM9.33175 20.7055H13.5967V16.4406H9.33175V20.7055ZM7.20025 8.62152H7.19995V7.91069C7.19995 7.12523 7.83614 6.48903 8.6216 6.48903H21.4165C22.202 6.48903 22.8382 7.12523 22.8382 7.91069V8.62152H9.33279L7.91126 11.4646C7.91126 12.25 7.27507 12.8862 6.48961 12.8862C5.70414 12.8862 5.06795 12.25 5.06795 11.4646L7.20025 8.62152ZM19.2837 11.4648C19.2837 12.2503 18.6475 12.8865 17.8621 12.8865C17.0766 12.8865 16.4404 12.2503 16.4404 11.4648V8.62153H18.5729L19.2837 11.4648ZM22.8369 8.6216H20.7044L22.1261 11.4649C22.1261 12.2504 22.7623 12.8866 23.5477 12.8866C24.3332 12.8866 24.9694 12.2504 24.9694 11.4649L22.8369 8.6216ZM11.4639 8.62153H13.5964V11.4648C13.5964 12.2503 12.9602 12.8865 12.1748 12.8865C11.3893 12.8865 10.7531 12.2503 10.7531 11.4648L11.4639 8.62153Z" />
</svg>
