<svg width="24" height="24" viewBox="0 0 24 24" fill="none" xmlns="http://www.w3.org/2000/svg">
<path d="M3.43332 17.325L3.07932 19.8C3.05745 19.9536 3.07162 20.1102 3.12072 20.2574C3.16982 20.4046 3.25251 20.5384 3.36223 20.6481C3.47195 20.7578 3.6057 20.8405 3.7529 20.8896C3.9001 20.9387 4.0567 20.9529 4.21032 20.931L6.68532 20.577C7.06032 20.524 8.00032 18 8.00032 18C8.00032 18 8.47232 18.405 8.66532 18.466C9.07732 18.596 9.47832 18.192 9.61332 17.782L10.0003 16.01C10.0003 16.01 10.5773 16.302 10.7863 16.345C11.0523 16.4 11.3103 16.236 11.4933 16.052C11.6033 15.9424 11.6858 15.8085 11.7343 15.661L12.0003 14.01C12.0003 14.01 12.6753 14.197 12.9063 14.224C13.1693 14.254 13.4253 14.12 13.6133 13.931L14.7513 12.794C15.7146 13.1062 16.7454 13.1464 17.7301 12.9103C18.7148 12.6743 19.6153 12.171 20.3323 11.456C21.362 10.4237 21.9403 9.02508 21.9403 7.567C21.9403 6.10892 21.362 4.71035 20.3323 3.678C19.3 2.64832 17.9014 2.07007 16.4433 2.07007C14.9852 2.07007 13.5867 2.64832 12.5543 3.678C11.8391 4.39493 11.3357 5.29539 11.0997 6.28014C10.8636 7.2649 10.9039 8.29572 11.2163 9.259L3.71532 16.759C3.56222 16.9119 3.46321 17.1107 3.43332 17.325ZM18.5043 5.506C19.0499 6.05317 19.3562 6.79432 19.3562 7.567C19.3562 8.33968 19.0499 9.08083 18.5043 9.628L14.3823 5.506C14.9295 4.96044 15.6706 4.65409 16.4433 4.65409C17.216 4.65409 17.9572 4.96044 18.5043 5.506Z" fill="white"/>
</svg>
