<svg width="23" height="23" viewBox="0 0 23 23" fill="none" xmlns="http://www.w3.org/2000/svg">
<path d="M8.17622 2.81473C10.27 1.59813 12.8437 1.61939 14.9179 2.87043C16.9716 4.14695 18.2199 6.42516 18.2083 8.87588C18.1604 11.3105 16.822 13.5991 15.1489 15.3682C14.1833 16.394 13.103 17.301 11.9302 18.0707C11.8094 18.1405 11.6771 18.1873 11.5398 18.2087C11.4077 18.203 11.279 18.164 11.1654 18.095C9.37491 16.9385 7.80411 15.4621 6.52856 13.737C5.46123 12.297 4.85484 10.5573 4.79175 8.75414L4.79653 8.49182C4.88367 6.13811 6.15718 3.98788 8.17622 2.81473ZM12.3695 6.74198C11.5184 6.38018 10.537 6.57674 9.88368 7.23991C9.23036 7.90307 9.03395 8.90202 9.38615 9.77032C9.73836 10.6386 10.5697 11.205 11.492 11.205C12.0963 11.2094 12.6771 10.9673 13.1051 10.5329C13.5331 10.0984 13.7728 9.5076 13.7706 8.89211C13.7738 7.95261 13.2207 7.10379 12.3695 6.74198Z" fill="#FF4E00"/>
<path opacity="0.4" d="M11.5002 21.0837C14.1465 21.0837 16.2918 20.6546 16.2918 20.1253C16.2918 19.5961 14.1465 19.167 11.5002 19.167C8.8538 19.167 6.7085 19.5961 6.7085 20.1253C6.7085 20.6546 8.8538 21.0837 11.5002 21.0837Z" fill="#FF4E00"/>
</svg>
