<svg width="23" height="23" viewBox="0 0 23 23" fill="none" xmlns="http://www.w3.org/2000/svg">
<path d="M13.8382 1.91675C13.8583 1.91675 13.8745 1.9264 13.8936 1.92833H14.0895C14.2844 1.92833 14.4707 2.0084 14.6064 2.15119L19.4465 7.24147C19.5745 7.37654 19.6462 7.55599 19.6462 7.74316V16.7167C19.6462 19.1239 17.7267 21.0834 15.3659 21.0834H7.7341C5.23665 21.0834 3.35449 19.2059 3.35449 16.7167V14.299C3.35449 13.8995 3.67551 13.5754 4.07105 13.5754C4.46659 13.5754 4.78761 13.8995 4.78761 14.299V16.7167C4.78761 18.408 6.02678 19.6362 7.7341 19.6362H15.3659C16.9366 19.6362 18.213 18.326 18.213 16.7167V8.03356L14.5548 4.18692V5.44887C14.5548 6.41753 15.3353 7.20673 16.2946 7.20866C16.6901 7.20963 17.0102 7.5338 17.0092 7.93419C17.0083 8.33265 16.6882 8.65586 16.2927 8.65586C14.5443 8.652 13.1217 7.21349 13.1217 5.44887V3.37552H7.7341C6.13665 3.37552 4.78761 4.69151 4.78761 6.24965V10.3655C4.78761 10.7649 4.46659 11.0891 4.07105 11.0891C3.67551 11.0891 3.35449 10.7649 3.35449 10.3655V6.24965C3.35449 3.90713 5.3599 1.92833 7.7341 1.92833H13.7828C13.8029 1.9264 13.8191 1.91675 13.8382 1.91675ZM11.3255 9.35949C11.721 9.35949 12.042 9.68366 12.042 10.0831V11.7242H13.6672C14.0627 11.7242 14.3838 12.0484 14.3838 12.4478C14.3838 12.8472 14.0627 13.1714 13.6672 13.1714H12.042V14.8116C12.042 15.211 11.721 15.5352 11.3255 15.5352C10.9299 15.5352 10.6089 15.211 10.6089 14.8116V13.1714H8.98473C8.58919 13.1714 8.26817 12.8472 8.26817 12.4478C8.26817 12.0484 8.58919 11.7242 8.98473 11.7242H10.6089V10.0831C10.6089 9.68366 10.9299 9.35949 11.3255 9.35949Z" fill="white"/>
</svg>
