<svg width="23" height="23" viewBox="0 0 23 23" fill="none" xmlns="http://www.w3.org/2000/svg">
<path d="M13.8392 1.91675C13.8583 1.91675 13.8745 1.9264 13.8936 1.92833H14.0904C14.2853 1.92833 14.4717 2.00841 14.6073 2.15121L19.4465 7.24173C19.5745 7.37681 19.6462 7.55627 19.6462 7.74345V16.5872C19.6462 19.0244 17.6866 21.0834 15.3669 21.0834H7.7341C5.27869 21.0834 3.35449 19.1084 3.35449 16.5872V14.1693C3.35449 13.7699 3.67551 13.4457 4.07105 13.4457C4.46659 13.4457 4.78761 13.7699 4.78761 14.1693V16.5872C4.78761 18.2969 6.08219 19.6361 7.7341 19.6361H15.3669C16.8831 19.6361 18.213 18.2111 18.213 16.5872V8.03387L14.5557 4.18703V5.44808C14.5557 6.41679 15.3353 7.207 16.2946 7.20893C16.6901 7.20989 17.0102 7.53408 17.0092 7.93449C17.0083 8.33297 16.6882 8.6562 16.2927 8.6562C14.5443 8.65234 13.1226 7.21375 13.1226 5.44808V3.3756H7.7341C6.13665 3.3756 4.78761 4.69165 4.78761 6.24987V10.2357C4.78761 10.6351 4.46659 10.9593 4.07105 10.9593C3.67551 10.9593 3.35449 10.6351 3.35449 10.2357V6.24987C3.35449 3.90723 5.3599 1.92833 7.7341 1.92833H13.7838C13.8029 1.9264 13.8191 1.91675 13.8392 1.91675ZM13.6581 14.2746C14.0537 14.2746 14.3747 14.5988 14.3747 14.9982C14.3747 15.3977 14.0537 15.7219 13.6581 15.7219H8.50081C8.10527 15.7219 7.78426 15.3977 7.78426 14.9982C7.78426 14.5988 8.10527 14.2746 8.50081 14.2746H13.6581ZM11.7072 9.49648C12.1027 9.49648 12.4237 9.82067 12.4237 10.2201C12.4237 10.6196 12.1027 10.9438 11.7072 10.9438H8.50081C8.10527 10.9438 7.78426 10.6196 7.78426 10.2201C7.78426 9.82067 8.10527 9.49648 8.50081 9.49648H11.7072Z" fill="white"/>
</svg>
