<svg width="28" height="28" viewBox="0 0 28 28" fill="none" xmlns="http://www.w3.org/2000/svg">
<path d="M19.5389 2.33362C23.5055 2.33362 25.7689 4.57362 25.7689 8.55195V19.4486C25.7689 23.4036 23.5172 25.667 19.5505 25.667H8.65388C4.67555 25.667 2.43555 23.4036 2.43555 19.4486V8.55195C2.43555 4.57362 4.67555 2.33362 8.65388 2.33362H19.5389ZM14.0905 8.76195C13.5539 8.76195 13.1222 9.19362 13.1222 9.73029V13.0203H9.82055C9.56388 13.0203 9.31888 13.1253 9.13221 13.3003C8.95721 13.487 8.85221 13.7308 8.85221 13.9886C8.85221 14.5253 9.28388 14.957 9.82055 14.9686H13.1222V18.2703C13.1222 18.807 13.5539 19.2386 14.0905 19.2386C14.6272 19.2386 15.0589 18.807 15.0589 18.2703V14.9686H18.3722C18.9089 14.957 19.3405 14.5253 19.3405 13.9886C19.3405 13.452 18.9089 13.0203 18.3722 13.0203H15.0589V9.73029C15.0589 9.19362 14.6272 8.76195 14.0905 8.76195Z" fill="black"/>
</svg>
