<svg width="34" height="34" viewBox="0 0 34 34" fill="none" xmlns="http://www.w3.org/2000/svg">
<path d="M26.2435 26.4238C26.8877 25.784 27.9204 25.784 28.5646 26.4238L32.8223 29.8607H32.8963C33.7577 30.7314 33.7577 32.143 32.8963 33.0137C32.0349 33.8844 30.6383 33.8844 29.7769 33.0137L26.2435 28.9642L26.1094 28.8129C25.8596 28.4967 25.7217 28.1026 25.7217 27.694C25.7217 27.2173 25.9095 26.7603 26.2435 26.4238ZM14.505 0.333374C18.2966 0.333374 21.9329 1.85577 24.6139 4.56565C27.2949 7.27552 28.8011 10.9509 28.8011 14.7832C28.8011 22.7637 22.4005 29.2331 14.505 29.2331C6.60955 29.2331 0.208984 22.7637 0.208984 14.7832C0.208984 6.8028 6.60955 0.333374 14.505 0.333374Z" fill="white"/>
</svg>
