<svg width="23" height="23" viewBox="0 0 23 23" fill="none" xmlns="http://www.w3.org/2000/svg">
<path d="M20.8494 19.748L17.5552 16.5273L17.478 16.4099C17.3345 16.267 17.1382 16.1865 16.9333 16.1865C16.7284 16.1865 16.5321 16.267 16.3885 16.4099C13.589 18.9783 9.27522 19.1179 6.30808 16.7361C3.34094 14.3544 2.64117 10.1904 4.67286 7.00566C6.70454 3.82093 10.8372 2.60373 14.3301 4.1613C17.8231 5.71886 19.5923 9.56788 18.4646 13.1557C18.3833 13.4149 18.4497 13.6968 18.6387 13.8951C18.8277 14.0935 19.1105 14.1782 19.3807 14.1174C19.6509 14.0565 19.8674 13.8594 19.9486 13.6002C21.2968 9.34253 19.2607 4.76065 15.1574 2.8186C11.0542 0.876536 6.1153 2.15712 3.53567 5.83194C0.956043 9.50676 1.50987 14.473 4.83888 17.5179C8.1679 20.5629 13.273 20.7728 16.8518 18.0119L19.7685 20.8635C20.0697 21.1567 20.5567 21.1567 20.858 20.8635C21.1589 20.5661 21.1589 20.0873 20.858 19.7899L20.8494 19.748Z" fill="white"/>
</svg>
