<svg width="23" height="23" viewBox="0 0 23 23" fill="none" xmlns="http://www.w3.org/2000/svg">
<path d="M12.1873 1.91699C12.912 1.91699 13.5682 2.31949 13.9305 2.91366C14.1068 3.20116 14.2244 3.55574 14.195 3.92949C14.1754 4.21699 14.2635 4.50449 14.4202 4.77283C14.9197 5.58741 16.0264 5.89408 16.8883 5.43408C17.8578 4.87824 19.0821 5.21366 19.6403 6.16241L20.2965 7.29324C20.8645 8.24199 20.5511 9.45908 19.5718 10.0053C18.7393 10.4941 18.4455 11.577 18.945 12.4012C19.1017 12.6599 19.2779 12.8803 19.5522 13.0145C19.8949 13.1966 20.1594 13.4841 20.3455 13.7716C20.7078 14.3657 20.6784 15.0941 20.3259 15.7362L19.6403 16.8862C19.2779 17.4995 18.6022 17.8828 17.9068 17.8828C17.564 17.8828 17.1821 17.787 16.8687 17.5953C16.614 17.4324 16.3202 17.3749 16.0068 17.3749C15.0372 17.3749 14.2244 18.1703 14.195 19.1191C14.195 20.2212 13.294 21.0837 12.1677 21.0837H10.8357C9.69965 21.0837 8.79862 20.2212 8.79862 19.1191C8.77903 18.1703 7.96615 17.3749 6.99657 17.3749C6.67337 17.3749 6.37956 17.4324 6.13472 17.5953C5.82132 17.787 5.42957 17.8828 5.09658 17.8828C4.39143 17.8828 3.71566 17.4995 3.35329 16.8862L2.67752 15.7362C2.31515 15.1132 2.29556 14.3657 2.65793 13.7716C2.81463 13.4841 3.10845 13.1966 3.44143 13.0145C3.71566 12.8803 3.89195 12.6599 4.05844 12.4012C4.54813 11.577 4.25432 10.4941 3.42185 10.0053C2.45226 9.45908 2.13886 8.24199 2.69711 7.29324L3.35329 6.16241C3.92133 5.21366 5.13575 4.87824 6.11513 5.43408C6.96719 5.89408 8.07388 5.58741 8.57336 4.77283C8.73006 4.50449 8.81821 4.21699 8.79862 3.92949C8.77903 3.55574 8.88676 3.20116 9.07285 2.91366C9.43521 2.31949 10.0914 1.93616 10.8063 1.91699H12.1873ZM11.5115 8.79783C9.97387 8.79783 8.73006 10.0053 8.73006 11.5099C8.73006 13.0145 9.97387 14.2124 11.5115 14.2124C13.0491 14.2124 14.2635 13.0145 14.2635 11.5099C14.2635 10.0053 13.0491 8.79783 11.5115 8.79783Z" fill="#FF4E00"/>
</svg>
