<svg width="24" height="24" viewBox="0 0 24 24" fill="none" xmlns="http://www.w3.org/2000/svg">
<path d="M17.5624 21.56C17.4003 21.5596 17.2407 21.5197 17.0974 21.444L12.0004 18.764L6.90337 21.444C6.73834 21.5304 6.55243 21.5691 6.36661 21.5555C6.18079 21.542 6.00244 21.4768 5.85169 21.3673C5.70093 21.2578 5.58376 21.1084 5.51338 20.9359C5.44301 20.7634 5.42222 20.5746 5.45337 20.391L6.42637 14.715L2.30237 10.695C2.16896 10.5647 2.07463 10.3997 2.03002 10.2187C1.98541 10.0377 1.9923 9.84775 2.04992 9.67042C2.10754 9.49309 2.21359 9.33541 2.35609 9.21517C2.4986 9.09492 2.67188 9.01692 2.85637 8.98996L8.55537 8.16196L11.1044 2.99796C11.1962 2.8418 11.3272 2.71233 11.4845 2.62238C11.6417 2.53243 11.8197 2.48511 12.0009 2.48511C12.182 2.48511 12.36 2.53243 12.5173 2.62238C12.6745 2.71233 12.8056 2.8418 12.8974 2.99796L15.4454 8.16196L21.1444 8.98996C21.3289 9.01692 21.5022 9.09492 21.6447 9.21517C21.7872 9.33541 21.8932 9.49309 21.9508 9.67042C22.0084 9.84775 22.0153 10.0377 21.9707 10.2187C21.9261 10.3997 21.8318 10.5647 21.6984 10.695L17.5744 14.715L18.5484 20.391C18.573 20.5344 18.566 20.6816 18.5278 20.822C18.4896 20.9625 18.4213 21.093 18.3275 21.2043C18.2337 21.3156 18.1167 21.4051 17.9847 21.4666C17.8527 21.528 17.7089 21.5599 17.5634 21.56H17.5624Z" fill="white"/>
</svg>
