<svg width="21" height="24" viewBox="0 0 21 24" fill="none" xmlns="http://www.w3.org/2000/svg">
<g clip-path="url(#clip0)">
<path d="M14.4539 14.4147C13.1855 14.4147 12.5756 15.1282 10.494 15.1282C8.41238 15.1282 7.80691 14.4147 6.53408 14.4147C3.25479 14.4147 0.594238 17.0991 0.594238 20.4079V21.5494C0.594238 22.7311 1.54444 23.6898 2.71561 23.6898H18.2724C19.4435 23.6898 20.3937 22.7311 20.3937 21.5494V20.4079C20.3937 17.0991 17.7332 14.4147 14.4539 14.4147ZM18.2724 21.5494H2.71561V20.4079C2.71561 18.2853 4.43039 16.5551 6.53408 16.5551C7.17934 16.5551 8.22676 17.2686 10.494 17.2686C12.7789 17.2686 13.8042 16.5551 14.4539 16.5551C16.5576 16.5551 18.2724 18.2853 18.2724 20.4079V21.5494ZM10.494 13.7012C14.0075 13.7012 16.8581 10.825 16.8581 7.27996C16.8581 3.73489 14.0075 0.858704 10.494 0.858704C6.98046 0.858704 4.12986 3.73489 4.12986 7.27996C4.12986 10.825 6.98046 13.7012 10.494 13.7012ZM10.494 2.99912C12.8319 2.99912 14.7367 4.92104 14.7367 7.27996C14.7367 9.63888 12.8319 11.5608 10.494 11.5608C8.15605 11.5608 6.25124 9.63888 6.25124 7.27996C6.25124 4.92104 8.15605 2.99912 10.494 2.99912Z" fill="white"/>
</g>
<defs>
<clipPath id="clip0">
<rect width="19.7995" height="22.8311" fill="white" transform="translate(0.594238 0.858704)"/>
</clipPath>
</defs>
</svg>
