<svg width="36" height="36" viewBox="0 0 36 36" fill="none" xmlns="http://www.w3.org/2000/svg">
<path d="M17.364 25.4933C17.7066 25.3085 17.9202 24.957 17.9202 24.5747V18.6217H29.6745C30.268 18.6217 30.7497 18.1512 30.7497 17.5714C30.7497 16.9917 30.268 16.5212 29.6745 16.5212H17.9202V10.5682C17.9202 10.1845 17.7066 9.83298 17.364 9.64953C17.0214 9.46328 16.6027 9.47589 16.2716 9.67894L4.89435 16.6822C4.58182 16.8754 4.39258 17.2101 4.39258 17.5714C4.39258 17.9327 4.58182 18.2674 4.89435 18.4607L16.2716 25.4639C16.4465 25.5704 16.6457 25.625 16.845 25.625C17.0228 25.625 17.202 25.5802 17.364 25.4933Z" fill="#FF4E00"/>
</svg>
