<svg width="20" height="20" viewBox="0 0 28 28" fill="none" xmlns="http://www.w3.org/2000/svg">
<path d="M23.4738 22.1121C24.1237 22.1121 24.6523 22.6476 24.6523 23.3061C24.6523 23.9657 24.1237 24.5 23.4738 24.5H16.812C16.162 24.5 15.6334 23.9657 15.6334 23.3061C15.6334 22.6476 16.162 22.1121 16.812 22.1121H23.4738ZM18.8538 4.31557L20.5747 5.68258C21.2804 6.2344 21.7508 6.9618 21.9117 7.72682C22.0974 8.56835 21.8994 9.39482 21.3423 10.1097L11.0915 23.3659C10.621 23.9679 9.92774 24.3065 9.18493 24.319L5.09947 24.3692C4.87663 24.3692 4.69093 24.2187 4.6414 24.0055L3.71289 19.9797C3.55195 19.2398 3.71289 18.4748 4.18334 17.8853L11.4505 8.4793C11.5743 8.32881 11.7971 8.30498 11.9457 8.4166L15.0036 10.8496C15.2017 11.0127 15.4741 11.1004 15.7588 11.0628C16.3654 10.9876 16.774 10.4358 16.7121 9.84631C16.6749 9.54532 16.5264 9.29449 16.3283 9.10637C16.2664 9.0562 13.357 6.72351 13.357 6.72351C13.1713 6.57302 13.1342 6.29711 13.2828 6.11024L14.4341 4.61657C15.4988 3.24956 17.3558 3.12415 18.8538 4.31557Z" fill="black"/>
</svg>
