<svg width="20" height="20" viewBox="0 0 28 28" fill="none" xmlns="http://www.w3.org/2000/svg">
<path d="M8.50496 14.8982H3.82777C3.33045 14.8982 2.91602 14.5015 2.91602 13.9999C2.91602 13.5099 3.33045 13.1015 3.82777 13.1015H8.50496L8.50531 7.52498C8.50531 4.66665 10.9148 2.33331 13.8665 2.33331H19.7456C22.6852 2.33331 25.0827 4.66665 25.0827 7.51331V20.4866C25.0827 23.345 22.6852 25.6666 19.7215 25.6666H13.8544C10.9148 25.6666 8.50531 23.345 8.50531 20.4983V14.8983H15.9748L14.0472 16.765C13.6857 17.115 13.6857 17.6866 14.0472 18.0366C14.2279 18.2116 14.4688 18.2933 14.7098 18.2933C14.9387 18.2933 15.1796 18.2116 15.3603 18.0366L18.8782 14.6416C19.0589 14.4783 19.1553 14.245 19.1553 14C19.1553 13.7666 19.0589 13.5333 18.8782 13.37L15.3603 9.97498C14.9989 9.62498 14.4086 9.62498 14.0472 9.97498C13.6857 10.325 13.6857 10.8966 14.0472 11.2466L15.9748 13.1016H8.50531L8.50496 14.8982Z" fill="black"/>
</svg>
