<svg width="20" height="20" viewBox="0 0 28 28" fill="none" xmlns="http://www.w3.org/2000/svg">
<path d="M14.1003 2.33337C20.5304 2.33337 25.7669 7.56733 25.7669 14.0068C25.7669 20.4327 20.5304 25.6667 14.1003 25.6667C7.67008 25.6667 2.43359 20.4327 2.43359 14.0068C2.43359 7.56733 7.67008 2.33337 14.1003 2.33337ZM12.7714 9.36827C12.5237 9.36827 12.2872 9.42455 12.062 9.53711C11.7804 9.69469 11.5552 9.94231 11.4313 10.235C11.3525 10.4376 11.2286 11.0454 11.2286 11.0566C11.1048 11.7207 11.0372 12.8013 11.0372 13.9944C11.0372 15.1324 11.1048 16.1668 11.2061 16.8421C11.2174 16.8534 11.3413 17.6075 11.4764 17.8664C11.7241 18.3392 12.2084 18.6318 12.7264 18.6318H12.7714C13.1093 18.6206 13.8187 18.3279 13.8187 18.3167C15.0124 17.8214 17.366 16.2793 18.312 15.2551L18.3795 15.1875C18.5034 15.0637 18.6611 14.8724 18.6949 14.8273C18.875 14.591 18.9651 14.2983 18.9651 14.0068C18.9651 13.6793 18.8638 13.3753 18.6723 13.1277C18.6273 13.0827 18.4584 12.8913 18.3007 12.7338C17.3773 11.7432 14.9674 10.1224 13.7061 9.62715C13.5147 9.54949 13.0304 9.37952 12.7714 9.36827Z" fill="black"/>
</svg>
