<svg width="20" height="20" viewBox="0 0 24 22" fill="none" xmlns="http://www.w3.org/2000/svg">
<path d="M18.9323 0.5C21.5969 0.5 23.7658 2.64901 23.7658 5.28933L23.7669 8.41286C23.7669 8.64175 23.6748 8.8637 23.5114 9.02554C23.3469 9.18854 23.1253 9.27986 22.8919 9.27986C21.9341 9.27986 21.1548 10.0521 21.1548 11.0012C21.1548 11.9502 21.9341 12.7224 22.8919 12.7224C23.3749 12.7224 23.7669 13.1109 23.7669 13.5895V16.7118C23.7669 19.3521 21.5993 21.5 18.9346 21.5H5.26709C2.60243 21.5 0.433594 19.3521 0.433594 16.7118V13.5895C0.433594 13.1109 0.825594 12.7224 1.30859 12.7224C2.26759 12.7224 3.04693 11.9502 3.04693 11.0012C3.04693 10.0764 2.29909 9.38044 1.30859 9.38044C1.07643 9.38044 0.85476 9.28911 0.69026 9.12611C0.52576 8.96312 0.433594 8.74232 0.433594 8.51343L0.435927 5.28933C0.435927 2.64901 2.60359 0.5 5.26826 0.5H18.9323ZM12.1026 6.51239C11.7713 6.51239 11.4749 6.69503 11.3268 6.98866L10.4763 8.69608L8.57926 8.97005C8.25143 9.01629 7.98309 9.23825 7.87926 9.55037C7.77659 9.86249 7.85943 10.2 8.09743 10.4289L9.47293 11.756L9.14859 13.6322C9.09259 13.9559 9.22443 14.2773 9.49276 14.4703C9.64443 14.5778 9.82059 14.6333 9.99909 14.6333C10.1356 14.6333 10.2733 14.5998 10.3993 14.5339L12.1003 13.6484L13.7978 14.5316C14.0918 14.6877 14.4406 14.6634 14.7078 14.4692C14.9773 14.2773 15.1091 13.9559 15.0531 13.6322L14.7276 11.756L16.1031 10.4289C16.3423 10.2 16.4251 9.86249 16.3213 9.55037C16.2186 9.23825 15.9503 9.01629 15.6259 8.97121L13.7254 8.69608L12.8749 6.98982C12.7291 6.69619 12.4328 6.51354 12.1026 6.51239Z" fill="black"/>
</svg>
