<svg width="20" height="20" viewBox="0 0 28 28" fill="none" xmlns="http://www.w3.org/2000/svg">
<path d="M14.1003 2.33362C20.5519 2.33362 25.7669 7.56029 25.7669 14.0003C25.7669 20.452 20.5519 25.667 14.1003 25.667C7.66026 25.667 2.43359 20.452 2.43359 14.0003C2.43359 7.56029 7.66026 2.33362 14.1003 2.33362ZM13.6919 8.08529C13.2136 8.08529 12.8169 8.47028 12.8169 8.96029V14.852C12.8169 15.1553 12.9803 15.4353 13.2486 15.5986L17.8219 18.3286C17.9619 18.4103 18.1136 18.457 18.2769 18.457C18.5686 18.457 18.8603 18.3053 19.0236 18.0253C19.2686 17.617 19.1403 17.0803 18.7203 16.8236L14.5669 14.3503V8.96029C14.5669 8.47028 14.1703 8.08529 13.6919 8.08529Z" fill="black"/>
</svg>
