<svg width="20" height="20" viewBox="0 0 28 28" fill="none" xmlns="http://www.w3.org/2000/svg">
<path d="M13.9907 16.9629C17.9937 16.9629 21.4118 17.5975 21.4118 20.137C21.4118 22.6755 18.0156 23.3333 13.9907 23.3333C9.98762 23.3333 6.56957 22.6987 6.56957 20.1602C6.56957 17.6206 9.96568 16.9629 13.9907 16.9629ZM20.391 15.4337C21.9214 15.4053 23.5667 15.6154 24.1747 15.7646C25.4628 16.0178 26.31 16.5348 26.661 17.286C26.9576 17.9028 26.9576 18.6183 26.661 19.2341C26.124 20.3993 24.393 20.7733 23.7203 20.87C23.5814 20.891 23.4696 20.7702 23.4842 20.6305C23.8279 17.4016 21.0941 15.8707 20.3869 15.5188C20.3566 15.503 20.3503 15.4788 20.3534 15.4641C20.3555 15.4536 20.3681 15.4368 20.391 15.4337ZM7.42181 15.4315L7.71 15.4341C7.73298 15.4372 7.74447 15.454 7.74656 15.4635C7.74969 15.4793 7.74342 15.5024 7.71417 15.5192C7.00591 15.8712 4.2721 17.402 4.61578 20.6298C4.63041 20.7706 4.51968 20.8904 4.38074 20.8704C3.70799 20.7738 1.97703 20.3997 1.44009 19.2345C1.14237 18.6177 1.14237 17.9032 1.44009 17.2865C1.79109 16.5352 2.63724 16.0183 3.92528 15.764C4.5343 15.6158 6.17856 15.4057 7.71 15.4341L7.42181 15.4315ZM13.9907 4.66663C16.7161 4.66663 18.9015 6.86261 18.9015 9.60495C18.9015 12.3463 16.7161 14.5443 13.9907 14.5443C11.2652 14.5443 9.07983 12.3463 9.07983 9.60495C9.07983 6.86261 11.2652 4.66663 13.9907 4.66663ZM20.6574 5.49017C23.2899 5.49017 25.3573 7.9814 24.6532 10.7563C24.1779 12.6245 22.4573 13.8654 20.5404 13.8149C20.3482 13.8097 20.1591 13.7918 19.9763 13.7603C19.8437 13.7372 19.7768 13.5869 19.852 13.4756C20.5833 12.3933 21.0001 11.0915 21.0001 9.69405C21.0001 8.23567 20.5446 6.87605 19.7538 5.76125C19.7287 5.72658 19.7099 5.67299 19.735 5.63307C19.7559 5.6005 19.7946 5.58368 19.8311 5.57528C20.0975 5.52064 20.3712 5.49017 20.6574 5.49017ZM7.44205 5.49007C7.72828 5.49007 8.00197 5.52054 8.2694 5.57517C8.30492 5.58358 8.34461 5.60144 8.36551 5.63296C8.38953 5.67289 8.37177 5.72648 8.3467 5.76115C7.55591 6.87595 7.10045 8.23557 7.10045 9.69395C7.10045 11.0914 7.51726 12.3932 8.24851 13.4754C8.32372 13.5868 8.25686 13.7371 8.12419 13.7602C7.94034 13.7928 7.7523 13.8096 7.56009 13.8148C5.64318 13.8653 3.92267 12.6244 3.44736 10.7562C2.74223 7.98129 4.80956 5.49007 7.44205 5.49007Z" fill="black"/>
</svg>
