<svg width="20" height="20" viewBox="0 0 28 28" fill="none" xmlns="http://www.w3.org/2000/svg">
<path d="M25.5452 14.9511C25.6292 14.9984 25.646 15.0986 25.6494 15.1368L25.6502 15.152L25.5568 21.1773C25.5568 23.5807 23.6946 25.5407 21.3497 25.6609L21.1213 25.6667H7.06758C4.69295 25.6667 2.7565 23.7818 2.63779 21.4084L2.63203 21.1773L2.55032 15.152C2.55032 15.152 2.55032 15.0102 2.65537 14.9511C2.74875 14.8921 2.86548 14.963 2.87715 14.9748C5.23499 16.5579 8.07141 17.6094 11.0479 18.0465C11.4681 18.1056 11.8883 17.8338 12.005 17.4085C12.2458 16.5003 12.9892 15.8828 13.8987 15.8092L14.0828 15.8018H14.1178C15.1099 15.8018 15.9387 16.4398 16.1955 17.4085C16.3122 17.8338 16.7324 18.1056 17.1526 18.0465C20.1291 17.6094 22.9655 16.5579 25.3234 14.9748C25.3234 14.9748 25.3467 14.963 25.3701 14.9511C25.4168 14.9275 25.4868 14.9157 25.5452 14.9511ZM14.0944 17.4912C13.6557 17.4912 13.2857 17.8288 13.2271 18.2581L13.219 18.3773V19.9013C13.219 20.3975 13.6159 20.7874 14.0944 20.7874C14.5438 20.7874 14.9049 20.4598 14.962 20.023L14.9699 19.9013V18.3773C14.9699 17.8929 14.5847 17.4912 14.0944 17.4912ZM15.6002 2.33337C17.3511 2.33337 18.7868 3.66839 19.0085 5.38146H21.3197C23.7709 5.38146 25.7669 7.4017 25.7669 9.8827C25.7669 9.8827 25.6969 10.933 25.6735 12.3956C25.6712 12.5114 25.6152 12.6248 25.523 12.6933C24.9615 13.108 24.4479 13.4506 24.4012 13.4742C22.4636 14.7738 20.212 15.6882 17.8133 16.1431C17.6569 16.1738 17.5028 16.0923 17.4234 15.9529C16.7511 14.788 15.4951 14.0295 14.0944 14.0295C12.7031 14.0295 11.4354 14.7797 10.7432 15.9458C10.6627 16.0828 10.511 16.162 10.3557 16.1325C7.97687 15.6764 5.72524 14.7632 3.79928 13.4861L2.67872 12.7063C2.58534 12.6472 2.52697 12.5409 2.52697 12.4228C2.49196 11.8202 2.43359 9.8827 2.43359 9.8827C2.43359 7.4017 4.42959 5.38146 6.88082 5.38146H9.1803C9.40208 3.66839 10.8378 2.33337 12.5887 2.33337H15.6002ZM15.6002 4.10552H12.5887C11.8066 4.10552 11.1413 4.64897 10.9545 5.38146H17.2343C17.0476 4.64897 16.3822 4.10552 15.6002 4.10552Z" fill="black"/>
</svg>
